<svg width="80" height="80" viewBox="0 0 80 80" fill="none" xmlns="http://www.w3.org/2000/svg">
<path fill-rule="evenodd" clip-rule="evenodd" d="M32.7335 34.6504H34.439C34.9818 34.6504 35.4298 35.0093 35.4298 35.5487V37.9775C35.4298 38.5181 34.9818 38.9662 34.439 38.9662H32.7335C32.193 38.9662 31.7448 38.5181 31.7448 37.9775V35.5487C31.7448 35.0093 32.193 34.6504 32.7335 34.6504ZM27.7847 39.7743H29.4945C30.0329 39.7743 30.4832 40.2235 30.4832 40.7663V43.1907C30.4832 43.641 30.0329 44.0935 29.4945 44.0935H27.7847C27.2452 44.0935 26.7971 43.641 26.7971 43.1907V40.7663C26.7971 40.2235 27.2452 39.7743 27.7847 39.7743ZM32.7335 39.7743H34.439C34.9818 39.7743 35.4298 40.2235 35.4298 40.7663V43.1907C35.4298 43.641 34.9818 44.0935 34.439 44.0935H32.7335C32.193 44.0935 31.7448 43.641 31.7448 43.1907V40.7663C31.7448 40.2235 32.193 39.7743 32.7335 39.7743ZM27.7847 34.6504H29.4945C30.0329 34.6504 30.4832 35.0093 30.4832 35.5487V37.9775C30.4832 38.5181 30.0329 38.9662 29.4945 38.9662H27.7847C27.2452 38.9662 26.7971 38.5181 26.7971 37.9775V35.5487C26.7971 35.0093 27.2452 34.6504 27.7847 34.6504ZM23.2002 29.6123H39.0289V59.2H23.2002V29.6123Z" fill="#1E4AA4"/>
<path fill-rule="evenodd" clip-rule="evenodd" d="M50.8076 25.6565H52.5185C53.0558 25.6565 53.5061 26.1057 53.5061 26.6451V28.9837C53.5061 29.5231 53.0558 29.9712 52.5185 29.9712H50.8076C50.2681 29.9712 49.8199 29.5231 49.8199 28.9837V26.6451C49.8199 26.1057 50.2681 25.6565 50.8076 25.6565ZM45.8642 30.874H47.5707C48.1101 30.874 48.5626 31.2329 48.5626 31.7713V34.2001C48.5626 34.7396 48.1101 35.0985 47.5707 35.0985H45.8642C45.3247 35.0985 44.8733 34.7396 44.8733 34.2001V31.7713C44.8722 31.2329 45.3247 30.874 45.8642 30.874ZM50.8076 30.874H52.5185C53.0558 30.874 53.5061 31.2329 53.5061 31.7713V34.2001C53.5061 34.7396 53.0558 35.0985 52.5185 35.0985H50.8076C50.2681 35.0985 49.8199 34.7396 49.8199 34.2001V31.7713C49.8199 31.2329 50.2681 30.874 50.8076 30.874ZM45.8642 25.6565H47.5707C48.1101 25.6565 48.5626 26.1057 48.5626 26.6451V28.9837C48.5626 29.5231 48.1101 29.9712 47.5707 29.9712H45.8642C45.3247 29.9712 44.8733 29.5231 44.8733 28.9837V26.6451C44.8722 26.1057 45.3247 25.6565 45.8642 25.6565ZM41.2764 20.8H57.1041V58.3908H41.2764V20.8Z" fill="#1E4AA4"/>
</svg>
