<svg width="80" height="80" viewBox="0 0 80 80" fill="none" xmlns="http://www.w3.org/2000/svg">
<path fill-rule="evenodd" clip-rule="evenodd" d="M60 37.5114V42.4875L54.5643 43.4094C54.1964 44.9767 53.5487 46.5429 52.7193 47.9263L55.853 52.3496L52.3503 55.8521L47.9268 52.7174C46.5422 53.5479 44.977 54.1922 43.4119 54.5623L42.4877 60H37.5123L36.5915 54.5623C34.9305 54.1922 33.4578 53.5479 32.0732 52.7174L27.5572 55.8521L24.0556 52.3496L27.2818 47.9263C26.361 46.5429 25.7133 44.9756 25.3443 43.4094L20 42.4875V37.5114L25.3443 36.5895C25.7133 34.9308 26.361 33.456 27.2818 32.0726L24.0556 27.6504L27.5572 24.0554L32.0732 27.2814C33.4578 26.4521 34.9305 25.8078 36.5915 25.4377L37.5123 20H42.4877L43.4119 25.4377C44.977 25.8066 46.5422 26.451 47.9268 27.2814L52.3503 24.0554L55.853 27.6504L52.7193 32.0726C53.5476 33.456 54.1953 34.9308 54.5643 36.5895L60 37.5114ZM49.6 39.9994C49.6 34.7284 45.3434 30.4 40.048 30.4C34.6555 30.4 30.4 34.7295 30.4 39.9994C30.4 45.2716 34.6555 49.6 40.048 49.6C45.3434 49.6 49.6 45.2705 49.6 39.9994Z" fill="#1E4AA4"/>
</svg>
