<svg width="80" height="80" viewBox="0 0 80 80" fill="none" xmlns="http://www.w3.org/2000/svg">
<path fill-rule="evenodd" clip-rule="evenodd" d="M22.4016 55.8204H27.5213V37.2931H26.4761V33.6823H28.6571L49.5052 20.0954L49.5992 20L49.6944 20.0954C49.6944 20.285 49.7883 20.57 49.8835 20.7596C50.4508 22.5673 50.735 23.2304 50.2605 25.6046L48.0806 27.0319V38.8135H49.315C49.5992 38.8135 49.8835 38.9077 50.0714 39.0973C50.3568 39.287 50.4508 39.6662 50.4508 39.9512V42.8023C50.4508 43.0862 50.3568 43.3711 50.0714 43.5642C49.8835 43.8481 49.5992 43.9446 49.315 43.9446H42.586C42.3029 43.9446 42.0187 43.8481 41.8296 43.5642C41.5465 43.3711 41.4514 43.0862 41.4514 42.8023V39.9512C41.4514 39.6662 41.5465 39.287 41.8296 39.0973C42.0187 38.9077 42.3029 38.8135 42.586 38.8135H43.817V29.7877L32.7293 37.0081L32.3511 37.2919L31.6886 37.6723V55.8192H56.8004V60H22.4004V55.8204H22.4016Z" fill="#1E4AA4"/>
</svg>
