<svg width="299" height="85" viewBox="0 0 299 85" fill="none" xmlns="http://www.w3.org/2000/svg">
<path d="M0.417781 35.9705V36.0107L0.409003 36.0634C0.397712 36.1361 0.386419 36.2101 0.376382 36.2842V36.2967C0.376382 36.3105 0.376382 36.3256 0.376382 36.3394C0.376382 36.3833 0.363837 36.4259 0.358818 36.4648L0.341254 36.5802V36.6003V36.6342V36.6518V36.6693V36.6781V36.7132V36.7396V36.7571C0.32369 36.8964 0.304872 37.0382 0.287307 37.1812C0.269743 37.3242 0.258447 37.4321 0.243392 37.5576C0.243392 37.6065 0.2321 37.6542 0.227081 37.7031V37.7169C0.209517 37.87 0.193216 38.0268 0.176906 38.1799C0.165615 38.294 0.156831 38.412 0.144285 38.5286V38.5399L0.132991 38.6554C0.132991 38.7005 0.12546 38.7469 0.121696 38.7921C0.117932 38.8373 0.112921 38.8887 0.109157 38.9376C0.109157 38.9627 0.109157 38.9878 0.109157 39.0129C0.109157 39.038 0.10288 39.0869 0.099116 39.1246L0.0903387 39.2638V39.3291C0.0765381 39.4871 0.0652462 39.6528 0.0564641 39.8422V39.8535C0.0564641 39.9338 0.0476792 40.0153 0.0439154 40.0956C0.0401517 40.1759 0.033876 40.265 0.0313668 40.3465V40.3804C0.0313668 40.3905 0.0313668 40.3992 0.0313668 40.408C0.0313668 40.4168 0.0313668 40.4457 0.0313668 40.4657V40.4958V40.5222C0.0313668 40.6175 0.0225908 40.7129 0.0200816 40.8082C0.0200816 40.8484 0.0200816 40.8885 0.0200816 40.9337C0.0138087 41.1081 0.0087883 41.2712 0.0062791 41.4355C0.0062791 41.4606 0.0062791 41.4882 0.0062791 41.5158V41.5924C0.0062791 41.7304 0 41.8646 0 42.0026V42.2535C0 42.2949 0 42.3363 0 42.379C0 42.4216 0 42.438 0 42.4681C0 42.4982 0 42.527 0 42.5559C0 42.5847 0 42.6374 0 42.6814V42.8168V42.931C0.121567 50.9871 3.40707 58.6721 9.14693 64.3263C14.8868 69.9805 22.6203 73.1501 30.6774 73.1505C31.9592 73.1488 33.2396 73.0679 34.5114 72.9083C35.0848 72.8368 35.6556 72.7565 36.2227 72.6574C30.4427 69.1506 25.7851 64.0652 22.7985 58C22.6216 57.6386 22.4522 57.2748 22.2879 56.9097C22.2703 56.8696 22.2503 56.8307 22.2314 56.7905C19.7756 51.2447 18.7894 45.16 19.3678 39.1224C19.9461 33.0849 22.0696 27.298 25.5335 22.3193C26.4785 20.9661 27.5164 19.6804 28.6399 18.4714C34.1177 12.5799 41.444 8.73673 49.4048 7.57854C57.3657 6.42036 65.4833 8.0167 72.4128 12.1031C72.4104 12.0997 72.4074 12.0967 72.404 12.0943L72.2534 11.9463C72.1869 11.881 72.1179 11.8208 72.0502 11.7518L71.9874 11.6916L71.9711 11.6778V11.6715L71.9611 11.6602C71.9034 11.605 71.8356 11.5448 71.7754 11.4871C71.7152 11.4294 71.6499 11.3616 71.5784 11.3027L71.5709 11.2939L71.5646 11.2863L71.5483 11.2725L71.5145 11.2412C71.4392 11.1697 71.3652 11.1019 71.2899 11.0342L71.2761 11.0204L71.177 10.9313L71.1281 10.8874C71.0189 10.7883 70.911 10.6904 70.8044 10.5951C70.6977 10.4997 70.561 10.3818 70.443 10.2789L70.3264 10.1798C70.2448 10.1095 70.1645 10.0393 70.0754 9.96902L69.9098 9.83101L69.8207 9.75574L69.7543 9.70179L69.7204 9.67293C69.6213 9.59013 69.5272 9.51235 69.4318 9.43707L69.418 9.42452H69.4118L69.403 9.417L69.3917 9.40821C69.3202 9.34799 69.2474 9.29154 69.1759 9.23382L69.1696 9.22756C68.94 9.04187 68.6992 8.85118 68.4595 8.67051H68.4532C68.3893 8.61908 68.3278 8.5714 68.2588 8.52121L68.1797 8.461L68.1321 8.42461L68.0994 8.39952L68.0894 8.39199L68.0806 8.38572H68.0744L68.0618 8.37819L67.9276 8.27782L67.8786 8.24144L67.6955 8.10594L67.6378 8.06454L67.5336 7.98927L67.4609 7.93658C67.3894 7.88263 67.3166 7.83245 67.2438 7.78101L67.1924 7.74337L67.1723 7.72957L67.1535 7.71576L66.6215 7.33938H66.614C66.5337 7.28418 66.4547 7.22898 66.3731 7.17503L66.3154 7.13489H66.3091C66.1837 7.05711 66.0695 6.97681 65.9478 6.89777L65.9277 6.88522L65.919 6.87895L65.9077 6.87268L65.8311 6.8225L65.5714 6.65438L65.5576 6.6456L65.5451 6.63681C65.4196 6.5515 65.2854 6.47121 65.1524 6.3859L65.1386 6.37836L65.121 6.36708C64.988 6.28177 64.8526 6.1977 64.7158 6.11615L64.5013 5.9907L64.4022 5.93173L64.2767 5.85771H64.2679L64.1926 5.8138L63.8991 5.64443L63.8263 5.60052L63.7259 5.5428C63.6356 5.49011 63.5453 5.43742 63.4549 5.38723L63.4286 5.37344C62.8251 5.03595 62.2091 4.71101 61.5894 4.40238L61.548 4.38105H61.5417L61.5279 4.37477C61.3924 4.30326 61.2556 4.23677 61.1151 4.17279L60.75 3.9984L60.7174 3.98335L60.6961 3.9733H60.6873H60.6785C60.2469 3.76881 59.8517 3.59693 59.4691 3.43007H59.459H59.4503H59.4415H59.4315C59.3399 3.38866 59.2483 3.34977 59.1542 3.30461L59.1153 3.28955L59.0877 3.277L58.9221 3.208L58.7452 3.13649L58.6624 3.10261C58.2521 2.93701 57.9096 2.80403 57.606 2.68986L57.4203 2.62086L57.3952 2.61207L57.2008 2.5393C56.6814 2.35111 56.1394 2.16293 55.5961 1.99356H55.5899H55.5836L55.5573 1.98477C55.4544 1.9509 55.3503 1.91954 55.2474 1.88817L54.9287 1.79031L54.7393 1.7326C54.5034 1.6636 54.2788 1.59962 54.063 1.5394H54.0492H54.0417L53.9539 1.51555L53.8134 1.47792L53.7845 1.46914L53.7431 1.45659C53.2952 1.33113 52.8386 1.22825 52.3806 1.12287C52.1109 1.06014 51.8424 0.997403 51.5702 0.942201C51.1135 0.845597 50.6568 0.747737 50.1901 0.664934C50.0182 0.634824 49.8488 0.604714 49.677 0.577113H49.6682H49.6569C49.4875 0.547003 49.3156 0.519409 49.1438 0.494317L48.9054 0.459188L48.6068 0.414019C48.1167 0.346271 47.6244 0.286471 47.1301 0.234615C46.1766 0.135501 45.2156 0.069004 44.2546 0.0326207C43.7201 0.0125472 43.1844 0 42.65 0C41.7492 0 40.8459 0.0326184 39.9451 0.0890752C39.8497 0.0890752 39.7556 0.0978587 39.6603 0.104132C38.6654 0.173134 37.673 0.276014 36.6919 0.412765L36.165 0.490545H36.1512L0.421552 35.953L0.417781 35.9705Z" fill="#1E4AA4"/>
<path d="M84.5974 48.9117V48.8791V48.8452C84.6062 48.785 84.615 48.7197 84.6225 48.6645V48.6507V48.6281V48.6031C84.6338 48.5253 84.6476 48.445 84.6563 48.3672V48.3145L84.6651 48.2618C84.6651 48.2367 84.6714 48.2116 84.6764 48.189L84.709 47.9231L84.7341 47.7399C84.7567 47.563 84.7755 47.3986 84.7943 47.238V47.2155C84.8132 47.0574 84.8282 46.9081 84.842 46.7575C84.8546 46.6321 84.8671 46.5066 84.8759 46.395V46.3887L84.8872 46.2733C84.896 46.1892 84.9035 46.1064 84.9085 46.0223V45.9897V45.9571C84.9198 45.8492 84.9273 45.7413 84.9336 45.6347V45.6184V45.5908C84.9474 45.4352 84.9587 45.2708 84.9675 45.0889V45.0776C84.9788 44.9108 84.9876 44.7477 84.9976 44.5871V44.5394V44.4729V44.4064C85.0064 44.2709 85.0114 44.1342 85.0164 43.9962C85.0227 43.8105 85.029 43.6348 85.0327 43.458V43.4354V43.3551C85.0327 43.2296 85.0327 43.1042 85.0327 42.9787V42.8344V42.8118C85.0327 42.7014 85.0327 42.5923 85.0327 42.4844C85.0327 42.3765 85.0327 42.2523 85.0327 42.1406V42.1318V42.0214C84.9125 33.9649 81.6274 26.2791 75.8872 20.6247C70.1471 14.9702 62.4128 11.8011 54.3554 11.802C52.4956 11.8025 50.6397 11.9705 48.81 12.3038C56.796 17.125 62.5472 24.9131 64.8053 33.9641C67.0633 43.0151 65.6443 52.592 60.8588 60.5993C56.0733 68.6067 48.3109 74.3926 39.2701 76.6909C30.2292 78.9893 20.6461 77.613 12.6175 72.8632L12.6262 72.872L12.6513 72.8945L12.6739 72.9171C12.6983 72.9437 12.7243 72.9688 12.7517 72.9924L12.837 73.0752C12.906 73.1442 12.975 73.2107 13.0453 73.2772L13.0566 73.2885L13.0704 73.301C13.1845 73.4114 13.3213 73.5419 13.4468 73.6623L13.4681 73.6786L13.4856 73.6962C13.5722 73.779 13.66 73.8618 13.7491 73.9471L13.7554 73.9534L13.7642 73.9597C13.9172 74.1014 14.074 74.2407 14.2346 74.3812L14.2447 74.3875L14.2535 74.3963L14.5646 74.671L14.5847 74.6861L14.6537 74.7463H14.6599L14.9623 75.0073L15.0238 75.06L15.0376 75.0738C15.1191 75.1428 15.2007 75.2118 15.2885 75.2783L15.3211 75.3033L15.3512 75.331C15.4227 75.3924 15.503 75.4564 15.5921 75.5279L15.6222 75.5505L15.6498 75.5731C15.7138 75.6283 15.7753 75.681 15.8393 75.7262L15.8606 75.7425L15.8782 75.7575C16.1052 75.9407 16.3411 76.1239 16.5795 76.3058C16.6297 76.3472 16.6824 76.3861 16.7325 76.4312C16.7827 76.4764 16.8492 76.5203 16.9094 76.5642C16.9433 76.5893 16.9759 76.6119 17.006 76.637L17.0637 76.6784L17.3498 76.8917L17.4389 76.9557L17.5832 77.0585L17.6007 77.0723L17.622 77.0861C17.691 77.1388 17.7638 77.189 17.8353 77.2404L17.9131 77.2957C18.0875 77.4211 18.2657 77.5466 18.4438 77.672L18.4601 77.6808L18.4764 77.6921C18.5542 77.7473 18.6345 77.8 18.7123 77.8527L18.7725 77.8916L18.9695 78.0171L19.1777 78.1563C19.2831 78.2253 19.3923 78.2981 19.5052 78.3671C19.6181 78.4361 19.7273 78.5088 19.8351 78.5778H20.1061L20.5892 79.0383C20.6619 79.0847 20.7385 79.1299 20.8137 79.1738C20.9605 79.2604 21.1098 79.3482 21.2579 79.4247L21.2717 79.4335L21.2855 79.4423C21.4021 79.5113 21.5188 79.5753 21.6393 79.6417C22.2666 79.9968 22.9039 80.333 23.5412 80.6454C23.683 80.7169 23.8235 80.7847 23.9628 80.8512L24.0242 80.8838C24.1572 80.9453 24.2877 81.0092 24.4207 81.0707C24.8222 81.2577 25.2324 81.4471 25.6326 81.614H25.6414H25.6502L25.95 81.7394C25.9802 81.7507 26.0115 81.7645 26.0467 81.7808L26.4481 81.9464C26.7756 82.0794 27.1306 82.2174 27.502 82.3567H27.5145H27.5258C27.64 82.4006 27.7554 82.4433 27.8721 82.4821H27.8884H27.9022C28.4454 82.6816 28.9837 82.8585 29.5018 83.0279L29.5206 83.0342H29.5369C29.6423 83.0705 29.7452 83.1032 29.8506 83.1345H29.8669H29.8807C30.0388 83.1847 30.1969 83.2337 30.3549 83.2813L30.4879 83.3202L31.0537 83.4808L31.3461 83.5611H31.3686C32.5417 83.8773 33.7361 84.1432 34.9129 84.3515H34.9267H34.9405C35.0823 84.3766 35.2366 84.4042 35.4285 84.4368H35.4398H35.4486C35.6393 84.4694 35.7961 84.4945 35.9417 84.5146H35.9642H35.9868C36.1524 84.5422 36.3193 84.5648 36.4887 84.5874H36.5025C40.4563 85.1376 44.4673 85.1376 48.4211 84.5874L48.4625 84.5811C48.6206 84.5585 48.7762 84.5372 48.933 84.5121H48.9556H48.9719L84.551 48.9343C84.5974 48.9518 84.5974 48.938 84.5974 48.9117Z" fill="#E5EBF0"/>
<path d="M282.554 14.7312H287.331L298.081 42.4151H293.772L290.616 34.0118H278.757L275.643 42.4151H271.548L282.554 14.7312ZM289.592 31.1539L284.9 18.6556H284.516L279.824 31.1539H289.592Z" fill="#06235E"/>
<path d="M256.364 17.6318H246.98V14.7312H269.886V17.6318H260.545V42.4151H256.364V17.6318Z" fill="#06235E"/>
<path d="M238.25 14.7312H242.388V42.4151H238.25V14.7312Z" fill="#06235E"/>
<path d="M221.941 42.8417C219.581 42.8417 216.766 42.6142 213.496 42.1592V38.7041C216.794 39.415 219.695 39.7705 222.197 39.7705C224.302 39.7705 225.837 39.543 226.804 39.088C227.771 38.6045 228.255 37.723 228.255 36.4433V32.8602C228.255 31.6658 227.913 30.8269 227.231 30.3434C226.548 29.86 225.354 29.6183 223.648 29.6183H220.406C217.704 29.6183 215.785 29.078 214.647 27.9973C213.51 26.9167 212.941 25.2389 212.941 22.9639V20.7458C212.941 19.2386 213.268 18.0158 213.922 17.0773C214.605 16.1389 215.728 15.4422 217.292 14.9872C218.884 14.5322 221.06 14.3047 223.818 14.3047C225.667 14.3047 228.041 14.4611 230.942 14.7739V17.8878C227.7 17.4044 225.226 17.1627 223.52 17.1627C220.875 17.1627 219.126 17.4186 218.273 17.9305C217.391 18.4708 216.951 19.3666 216.951 20.6178V23.7744C216.951 24.7413 217.292 25.4522 217.974 25.9072C218.685 26.3338 219.894 26.547 221.6 26.547H224.927C226.833 26.547 228.311 26.7745 229.364 27.2295C230.444 27.6845 231.198 28.3813 231.624 29.3197C232.079 30.2297 232.307 31.4667 232.307 33.0308V35.0356C232.307 36.9978 231.937 38.5477 231.198 39.6852C230.487 40.8227 229.378 41.6331 227.871 42.1166C226.363 42.6 224.387 42.8417 221.941 42.8417Z" fill="#06235E"/>
<path d="M202.676 14.7312H206.813V42.4151H202.676V14.7312Z" fill="#06235E"/>
<path d="M175.724 14.7312H185.45C187.895 14.7312 189.801 14.8876 191.166 15.2004C192.559 15.4848 193.569 16.0109 194.194 16.7787C194.848 17.5465 195.175 18.6698 195.175 20.1485V24.926C195.175 26.5754 194.493 27.8551 193.128 28.7651C191.791 29.6467 190.085 30.0875 188.009 30.0875L196.882 42.4151H191.806L183.871 30.5993H179.862V42.4151H175.724V14.7312ZM185.279 27.8693C187.327 27.8693 188.791 27.6276 189.673 27.1442C190.583 26.6323 191.038 25.7223 191.038 24.4142V20.5751C191.038 18.4992 189.246 17.4612 185.663 17.4612H179.862V27.8693H185.279Z" fill="#06235E"/>
<path d="M157.608 42.8417C149.873 42.8417 146.005 40.3392 146.005 35.3342V22.2388C146.005 16.9494 149.873 14.3047 157.608 14.3047C165.428 14.3047 169.338 16.9352 169.338 22.1961V35.3342C169.338 38.0073 168.257 39.9269 166.096 41.0928C163.935 42.2588 161.105 42.8417 157.608 42.8417ZM157.693 40.0691C162.783 40.0691 165.328 38.4766 165.328 35.2916V22.1108C165.328 18.6983 162.769 16.992 157.65 16.992C155.176 16.992 153.271 17.3759 151.934 18.1438C150.626 18.9116 149.972 20.2339 149.972 22.1108V35.2916C149.972 38.4766 152.546 40.0691 157.693 40.0691Z" fill="#06235E"/>
<path d="M110.032 14.7312H116.217L125.089 37.7656L125.217 37.8082L133.621 14.7312H139.593V42.4151H135.967V18.9968H135.754L126.838 42.4151H123.127L113.956 18.9968H113.743V42.4151H110.032V14.7312Z" fill="#06235E"/>
<path d="M248.141 62.4965H250.061V63.7548C250.26 62.7737 251.39 62.2832 253.452 62.2832C254.774 62.2832 255.699 62.5249 256.225 63.0084C256.765 63.4776 257.035 64.2241 257.035 65.2478V72.8193H255.116V65.3545C255.116 65.0843 255.094 64.8639 255.052 64.6933C255.009 64.5227 254.924 64.352 254.796 64.1814C254.511 63.8259 253.879 63.6482 252.898 63.6482C252.144 63.6482 251.561 63.7051 251.149 63.8188C250.751 63.9184 250.466 64.089 250.296 64.3307C250.139 64.5724 250.061 64.9137 250.061 65.3545V72.8193H248.141V62.4965Z" fill="#06235E"/>
<path d="M240.392 73.0326C239.482 73.0326 238.799 72.997 238.344 72.9259C237.889 72.8691 237.434 72.734 236.979 72.5207C236.51 72.3074 236.169 71.9662 235.955 71.497C235.742 71.0135 235.635 70.3666 235.635 69.5561V65.973C235.635 65.3331 235.714 64.7715 235.87 64.288C236.027 63.8046 236.233 63.4278 236.489 63.1577C236.702 62.9159 237.022 62.7311 237.448 62.6031C237.889 62.4609 238.337 62.3685 238.792 62.3259C239.304 62.2974 239.837 62.2832 240.392 62.2832C241.131 62.2832 241.686 62.3045 242.055 62.3472C242.439 62.3756 242.844 62.4467 243.271 62.5605C243.712 62.6884 244.053 62.8804 244.295 63.1363C244.536 63.3923 244.743 63.762 244.913 64.2454C245.07 64.743 245.148 65.3189 245.148 65.973V69.5561C245.148 70.7647 244.871 71.6463 244.316 72.2008C244.089 72.4283 243.762 72.606 243.335 72.734C242.908 72.862 242.468 72.9473 242.013 72.9899C241.472 73.0184 240.932 73.0326 240.392 73.0326ZM240.392 71.7742C240.989 71.7742 241.423 71.76 241.693 71.7316C241.963 71.7031 242.226 71.6249 242.482 71.497C242.738 71.3832 242.916 71.1984 243.015 70.9424C243.129 70.6723 243.186 70.3026 243.186 69.8334V65.653C243.186 65.0132 243.107 64.5511 242.951 64.2667C242.795 63.9681 242.524 63.7762 242.141 63.6909C241.771 63.5913 241.188 63.5416 240.392 63.5416C239.595 63.5416 239.005 63.5913 238.621 63.6909C238.252 63.7762 237.989 63.9681 237.832 64.2667C237.676 64.5511 237.598 65.0132 237.598 65.653V69.8334C237.598 70.3026 237.647 70.6723 237.747 70.9424C237.861 71.1984 238.046 71.3832 238.302 71.497C238.557 71.6249 238.821 71.7031 239.091 71.7316C239.361 71.76 239.794 71.7742 240.392 71.7742Z" fill="#06235E"/>
<path d="M230.771 58.764H232.69V60.7689H230.771V58.764ZM230.771 62.4965H232.69V72.8193H230.771V62.4965Z" fill="#06235E"/>
<path d="M226.519 73.0326C225.637 73.0326 224.948 72.9401 224.45 72.7553C223.953 72.5562 223.59 72.2292 223.362 71.7742C223.149 71.305 223.043 70.6509 223.043 69.812V63.7548H220.739V62.4965H223.043V59.2972H224.983V62.4965H228.673V63.7548H224.983V69.9186C224.983 70.4305 225.04 70.8144 225.154 71.0704C225.282 71.3263 225.495 71.5111 225.794 71.6249C226.107 71.7244 226.555 71.7742 227.138 71.7742C227.322 71.7742 227.834 71.7173 228.673 71.6036V72.8619C227.948 72.9757 227.23 73.0326 226.519 73.0326Z" fill="#06235E"/>
<path d="M213.891 73.0326C212.91 73.0326 212.149 72.9402 211.609 72.7553C211.083 72.5705 210.699 72.2434 210.457 71.7742C210.23 71.305 210.116 70.6296 210.116 69.748C210.116 68.966 210.223 68.3617 210.436 67.9352C210.663 67.4944 211.04 67.1816 211.566 66.9967C212.107 66.8119 212.867 66.7195 213.848 66.7195H216.941V65.0772C216.941 64.6933 216.863 64.4018 216.706 64.2027C216.564 63.9895 216.315 63.8402 215.96 63.7548C215.619 63.6695 215.114 63.6269 214.446 63.6269C213.379 63.6269 212.199 63.7122 210.905 63.8828V62.4752C212.313 62.3472 213.585 62.2832 214.723 62.2832C215.917 62.2832 216.799 62.3756 217.367 62.5605C217.936 62.7311 218.327 63.0368 218.541 63.4776C218.754 63.9184 218.86 64.6009 218.86 65.5251V72.8193H217.005V71.8382C216.848 72.6345 215.811 73.0326 213.891 73.0326ZM214.211 71.7742C214.908 71.7742 215.498 71.7245 215.981 71.6249C216.621 71.497 216.941 71.1984 216.941 70.7291V67.9138H213.976C213.365 67.9138 212.924 67.9636 212.654 68.0631C212.384 68.1484 212.206 68.3191 212.121 68.575C212.035 68.8309 211.993 69.2433 211.993 69.812C211.993 70.3239 212.043 70.722 212.142 71.0064C212.242 71.2766 212.419 71.4756 212.675 71.6036C212.931 71.7173 213.315 71.7742 213.827 71.7742H214.211Z" fill="#06235E"/>
<path d="M203.236 62.4965H205.049V64.1814C205.049 63.8544 205.191 63.5487 205.475 63.2643C205.76 62.9657 206.122 62.7311 206.563 62.5605C207.004 62.3756 207.437 62.2832 207.864 62.2832H208.802V63.9255H207.736C206.826 63.9255 206.165 64.0463 205.752 64.288C205.354 64.5155 205.155 64.935 205.155 65.5464V72.8193H203.236V62.4965Z" fill="#06235E"/>
<path d="M195.486 73.0326C194.576 73.0326 193.893 72.997 193.438 72.9259C192.983 72.8691 192.528 72.734 192.073 72.5207C191.604 72.3074 191.263 71.9662 191.05 71.497C190.836 71.0135 190.73 70.3666 190.73 69.5561V65.973C190.73 65.3331 190.808 64.7715 190.964 64.288C191.121 63.8046 191.327 63.4278 191.583 63.1577C191.796 62.9159 192.116 62.7311 192.543 62.6031C192.983 62.4609 193.431 62.3685 193.886 62.3259C194.398 62.2974 194.931 62.2832 195.486 62.2832C196.225 62.2832 196.78 62.3045 197.15 62.3472C197.533 62.3756 197.939 62.4467 198.365 62.5605C198.806 62.6884 199.147 62.8804 199.389 63.1363C199.631 63.3923 199.837 63.762 200.008 64.2454C200.164 64.743 200.242 65.3189 200.242 65.973V69.5561C200.242 70.7647 199.965 71.6463 199.41 72.2008C199.183 72.4283 198.856 72.606 198.429 72.734C198.003 72.862 197.562 72.9473 197.107 72.9899C196.567 73.0184 196.026 73.0326 195.486 73.0326ZM195.486 71.7742C196.083 71.7742 196.517 71.76 196.787 71.7316C197.057 71.7031 197.32 71.6249 197.576 71.497C197.832 71.3832 198.01 71.1984 198.109 70.9424C198.223 70.6723 198.28 70.3026 198.28 69.8334V65.653C198.28 65.0132 198.202 64.5511 198.045 64.2667C197.889 63.9681 197.619 63.7762 197.235 63.6909C196.865 63.5913 196.282 63.5416 195.486 63.5416C194.69 63.5416 194.1 63.5913 193.716 63.6909C193.346 63.7762 193.083 63.9681 192.927 64.2667C192.77 64.5511 192.692 65.0132 192.692 65.653V69.8334C192.692 70.3026 192.742 70.6723 192.841 70.9424C192.955 71.1984 193.14 71.3832 193.396 71.497C193.652 71.6249 193.915 71.7031 194.185 71.7316C194.455 71.76 194.889 71.7742 195.486 71.7742Z" fill="#06235E"/>
<path d="M178.763 62.4965H180.661V63.6055H180.682C180.838 62.724 182.011 62.2832 184.201 62.2832C185.509 62.2832 186.498 62.5605 187.166 63.115C187.834 63.6553 188.168 64.352 188.168 65.2052V69.4495C188.168 70.0609 188.076 70.5941 187.891 71.0491C187.72 71.5041 187.493 71.8595 187.208 72.1155C186.953 72.3572 186.597 72.5491 186.142 72.6913C185.701 72.8335 185.26 72.9259 184.82 72.9686C184.422 73.0112 183.938 73.0326 183.369 73.0326C182.744 73.0326 182.168 72.9615 181.642 72.8193C181.13 72.6629 180.81 72.4425 180.682 72.1581V77.2555H178.763V62.4965ZM183.412 71.7316C184.151 71.7316 184.713 71.6818 185.097 71.5823C185.495 71.4685 185.779 71.2695 185.95 70.9851C186.121 70.7007 186.206 70.267 186.206 69.6841V65.8877C186.206 65.2478 186.121 64.7715 185.95 64.4587C185.779 64.1459 185.495 63.9397 185.097 63.8402C184.713 63.7264 184.144 63.6695 183.391 63.6695C182.637 63.6695 182.075 63.7264 181.706 63.8402C181.336 63.9397 181.073 64.1459 180.917 64.4587C180.76 64.7573 180.682 65.2336 180.682 65.8877V69.6841C180.682 70.267 180.76 70.7007 180.917 70.9851C181.087 71.2695 181.365 71.4685 181.748 71.5823C182.132 71.6818 182.687 71.7316 183.412 71.7316Z" fill="#06235E"/>
<path d="M171.285 62.4965H173.098V64.1814C173.098 63.8544 173.24 63.5487 173.525 63.2643C173.809 62.9657 174.172 62.7311 174.612 62.5605C175.053 62.3756 175.487 62.2832 175.913 62.2832H176.852V63.9255H175.785C174.875 63.9255 174.214 64.0463 173.802 64.288C173.404 64.5155 173.205 64.935 173.205 65.5464V72.8193H171.285V62.4965Z" fill="#06235E"/>
<path d="M163.535 73.0326C162.625 73.0326 161.943 72.997 161.488 72.9259C161.033 72.8691 160.578 72.734 160.123 72.5207C159.654 72.3074 159.312 71.9662 159.099 71.497C158.886 71.0135 158.779 70.3666 158.779 69.5561V65.973C158.779 65.3331 158.857 64.7715 159.014 64.288C159.17 63.8046 159.376 63.4278 159.632 63.1577C159.846 62.9159 160.166 62.7311 160.592 62.6031C161.033 62.4609 161.481 62.3685 161.936 62.3259C162.448 62.2974 162.981 62.2832 163.535 62.2832C164.275 62.2832 164.829 62.3045 165.199 62.3472C165.583 62.3756 165.988 62.4467 166.415 62.5605C166.855 62.6884 167.197 62.8804 167.438 63.1363C167.68 63.3923 167.886 63.762 168.057 64.2454C168.213 64.743 168.292 65.3189 168.292 65.973V69.5561C168.292 70.7647 168.014 71.6463 167.46 72.2008C167.232 72.4283 166.905 72.606 166.479 72.734C166.052 72.862 165.611 72.9473 165.156 72.9899C164.616 73.0184 164.076 73.0326 163.535 73.0326ZM163.535 71.7742C164.133 71.7742 164.566 71.76 164.836 71.7316C165.107 71.7031 165.37 71.6249 165.626 71.497C165.881 71.3832 166.059 71.1984 166.159 70.9424C166.273 70.6723 166.329 70.3026 166.329 69.8334V65.653C166.329 65.0132 166.251 64.5511 166.095 64.2667C165.938 63.9681 165.668 63.7762 165.284 63.6909C164.915 63.5913 164.332 63.5416 163.535 63.5416C162.739 63.5416 162.149 63.5913 161.765 63.6909C161.395 63.7762 161.132 63.9681 160.976 64.2667C160.82 64.5511 160.741 65.0132 160.741 65.653V69.8334C160.741 70.3026 160.791 70.6723 160.891 70.9424C161.004 71.1984 161.189 71.3832 161.445 71.497C161.701 71.6249 161.964 71.7031 162.234 71.7316C162.505 71.76 162.938 71.7742 163.535 71.7742Z" fill="#06235E"/>
<path d="M152.648 73.0325C148.767 73.0325 146.826 71.7813 146.826 69.2788V62.7097C146.826 60.065 148.767 58.7427 152.648 58.7427C153.971 58.7427 155.236 58.8778 156.445 59.1479V60.6835C155.08 60.3423 153.829 60.1717 152.691 60.1717C152.137 60.1717 151.653 60.2072 151.241 60.2783C150.828 60.3352 150.43 60.4418 150.046 60.5982C149.222 60.9537 148.809 61.6504 148.809 62.6884V69.1721C148.809 70.7646 150.132 71.5609 152.776 71.5609C153.914 71.5609 155.165 71.3903 156.53 71.049V72.6273C155.322 72.8974 154.028 73.0325 152.648 73.0325Z" fill="#06235E"/>
</svg>
